<?xml version="1.0" encoding="utf-8"?>
<!-- Generator: Adobe Illustrator 15.0.0, SVG Export Plug-In . SVG Version: 6.00 Build 0)  -->
<!DOCTYPE svg PUBLIC "-//W3C//DTD SVG 1.1//EN" "http://www.w3.org/Graphics/SVG/1.1/DTD/svg11.dtd">
<svg version="1.1" id="Layer_1" xmlns="http://www.w3.org/2000/svg" xmlns:xlink="http://www.w3.org/1999/xlink" x="0px" y="0px"
	 width="20px" height="20px" viewBox="2 2 20 20" enable-background="new 2 2 20 20" xml:space="preserve">
<path fill="#FFFFFF" d="M12,2C6.489,2,2,6.489,2,12s4.489,10,10,10c5.512,0,10-4.489,10-10S17.512,2,12,2z M12,4c4.43,0,8,3.57,8,8
	c0,4.43-3.57,8-8,8c-4.43,0-8-3.57-8-8C4,7.57,7.57,4,12,4z M11,6v6.414l4.293,4.293l1.414-1.414L13,11.586V6H11z"/>
</svg>
