<?xml version="1.0" encoding="utf-8"?>
<!-- Generator: Adobe Illustrator 15.0.0, SVG Export Plug-In . SVG Version: 6.00 Build 0)  -->
<!DOCTYPE svg PUBLIC "-//W3C//DTD SVG 1.1//EN" "http://www.w3.org/Graphics/SVG/1.1/DTD/svg11.dtd">
<svg version="1.1" id="Capa_1" xmlns="http://www.w3.org/2000/svg" xmlns:xlink="http://www.w3.org/1999/xlink" x="0px" y="0px"
	 width="20px" height="20px" viewBox="296 386 20 20" enable-background="new 296 386 20 20" xml:space="preserve">
<g>
	<path fill="#FFFFFF" d="M305.998,386c-3.231,0-5.86,2.629-5.86,5.861c0,0.881,0.19,1.728,0.567,2.518
		c0.008,0.017,0.016,0.033,0.024,0.05l4.428,8.573c0.163,0.315,0.487,0.513,0.841,0.513s0.679-0.197,0.841-0.513l4.428-8.571
		c0.007-0.015,0.015-0.03,0.021-0.045c0.379-0.792,0.57-1.642,0.57-2.525C311.858,388.629,309.229,386,305.998,386z
		 M305.998,394.928c-1.691,0-3.067-1.376-3.067-3.067s1.376-3.068,3.067-3.068s3.067,1.376,3.067,3.068
		S307.689,394.928,305.998,394.928z"/>
	<path fill="#FFFFFF" d="M308.256,404.863h-4.515c-0.314,0-0.568,0.255-0.568,0.568c0,0.314,0.254,0.568,0.568,0.568h4.515
		c0.313,0,0.568-0.254,0.568-0.568C308.824,405.118,308.569,404.863,308.256,404.863z"/>
</g>
</svg>
