<?xml version="1.0" encoding="utf-8"?>
<!-- Generator: Adobe Illustrator 15.0.0, SVG Export Plug-In . SVG Version: 6.00 Build 0)  -->
<!DOCTYPE svg PUBLIC "-//W3C//DTD SVG 1.1//EN" "http://www.w3.org/Graphics/SVG/1.1/DTD/svg11.dtd">
<svg version="1.1" id="Capa_1" xmlns="http://www.w3.org/2000/svg" xmlns:xlink="http://www.w3.org/1999/xlink" x="0px" y="0px"
	 width="20px" height="20px" viewBox="197.469 197.469 20 20" enable-background="new 197.469 197.469 20 20" xml:space="preserve">
<g>
	<path fill="#FFFFFF" d="M205.139,209.827c1.794,1.781,3.87,3.482,4.686,2.661c1.167-1.176,1.886-2.199,4.476-0.134
		c2.59,2.066,0.611,3.458-0.519,4.597c-1.305,1.314-6.19,0.092-11.033-4.714c-4.843-4.807-6.103-9.684-4.797-10.999
		c1.13-1.14,2.506-3.127,4.591-0.552c2.086,2.573,1.068,3.3-0.099,4.476C201.628,205.984,203.345,208.047,205.139,209.827z
		 M207.74,201.333c0,0-0.541-0.084-0.92,0.294c-0.39,0.39-0.407,1.062,0.004,1.473c0.243,0.243,0.585,0.294,0.585,0.294
		c0.668,0.125,1.674,0.337,2.745,1.408c1.07,1.071,1.282,2.077,1.407,2.745c0,0,0.052,0.343,0.295,0.585
		c0.41,0.411,1.082,0.395,1.473,0.004c0.379-0.378,0.295-0.92,0.295-0.92c-0.212-1.352-0.868-2.765-1.993-3.891
		C210.505,202.2,209.092,201.545,207.74,201.333z M212.816,202.14c1.962,1.962,2.799,4.19,2.526,5.995c0,0-0.095,0.572,0.278,0.945
		c0.42,0.42,1.086,0.396,1.479,0.003c0.253-0.253,0.308-0.664,0.308-0.664c0.226-1.56-0.058-4.698-3.115-7.755
		c-3.059-3.058-6.196-3.341-7.756-3.116c0,0-0.411,0.055-0.664,0.308c-0.394,0.394-0.417,1.06,0.003,1.479
		c0.373,0.374,0.945,0.278,0.945,0.278C208.626,199.341,210.854,200.177,212.816,202.14z"/>
</g>
</svg>
